<svg xmlns="http://www.w3.org/2000/svg" width="1116" height="216" viewBox="0 0 1116 216"><path fill="#FFCF01" d="M300.14 2.894v211.37s-43.756-29.502-108.587-29.502c-52.15 0-162.052 8.805-191.553-134.63 0 0 19.83 17.455 60.805 17.455 66.175 0 87.65-64.693 239.334-64.693z"/><g fill="#58595B"><path d="M331.7 142.896h48.533c6.27.102 13.852.202 20.02 5.764 2.326 2.02 6.37 6.674 6.37 15.27 0 17.086-14.458 19.412-19.21 20.22l26.29 30.133h-13.247L376.29 185.77h-34.48v28.513H331.7v-71.387zm10.008 8.594v25.885h35.29c5.56 0 12.638-.102 16.682-5.46 1.82-2.325 2.427-5.056 2.427-7.583 0-2.73-.708-5.46-2.123-7.584-3.236-5.157-8.392-5.157-13.043-5.258H341.71zM421.286 142.896h65.925v8.797h-55.813v21.335h54.298v8.393h-54.298v24.064h58.342v8.798h-68.454v-71.386zM501.47 142.896h63.397v8.595h-53.49v22.954h51.467v8.493h-51.466v31.345h-9.91v-71.386zM577.204 142.896h65.926v8.797h-55.814v21.335h54.298v8.393h-54.298v24.064h58.342v8.798h-68.453v-71.386zM658.298 142.896h48.534c6.27.102 13.853.202 20.02 5.764 2.326 2.02 6.37 6.674 6.37 15.27 0 17.086-14.46 19.412-19.21 20.22l26.288 30.133h-13.245L702.89 185.77h-34.48v28.513H658.3v-71.387zm10.01 8.594v25.885h35.29c5.56 0 12.638-.102 16.683-5.46 1.82-2.325 2.427-5.056 2.427-7.583 0-2.73-.708-5.46-2.123-7.584-3.235-5.157-8.393-5.157-13.043-5.258h-39.23zM748.896 142.896h65.925v8.797H759.01v21.335h54.297v8.393h-54.297v24.064h58.342v8.798h-68.453v-71.386zM839.394 142.896l48.13 51.062c3.437 3.64 4.145 4.448 7.583 8.695-.506-5.056-.506-5.967-.607-10.517v-49.24h9.707v71.385h-9.91l-50.555-53.487c-2.63-2.933-3.438-3.943-5.562-6.572.404 4.956.506 6.37.506 12.337v47.725h-9.707v-71.386h10.414zM999.76 194.665c-2.73 4.854-5.562 9.706-12.64 14.156-8.796 5.562-20.12 7.18-28.716 7.18-29.02 0-43.378-16.684-43.378-37.916 0-16.887 8.393-24.673 13.247-28.312 3.033-2.427 11.525-9 29.828-9 5.157 0 17.595.71 27.2 6.674 7.583 4.752 11.122 10.72 13.043 13.955l-10.92 2.427c-1.618-2.83-3.337-5.865-7.785-8.797-4.348-2.832-12.033-5.36-21.133-5.36-16.986 0-32.76 7.99-32.76 28.11 0 7.078 2.02 14.357 7.38 20.324 4.855 4.954 13.146 9.1 25.985 9.1 11.022.1 18.403-2.73 22.75-6.168 3.844-2.83 6.17-6.47 7.18-8.595l10.72 2.225zM1011.39 142.896h65.924v8.797H1021.5v21.335h54.298v8.393H1021.5v24.064h58.342v8.798h-68.452v-71.386z"/><g><path d="M351.14 86.716c3.025 3.36 5.546 6.05 11.43 9.243a48.805 48.805 0 0 0 22.853 5.713c11.764 0 21.847-5.546 21.847-13.78 0-9.412-11.932-10.924-20.67-12.1-6.555-.84-13.108-1.68-19.495-3.025-7.226-1.513-31.93-6.723-31.93-32.267 0-30.584 27.226-39.66 47.728-39.66 27.393 0 42.18 13.278 52.432 22.52L413.49 38.99c-3.698-3.698-7.06-6.892-11.765-9.58-4.2-2.353-11.763-5.21-19.326-5.21-11.765 0-17.647 6.722-17.647 12.436 0 9.075 10.083 10.42 15.125 11.09 12.604 1.513 29.577 4.707 36.3 7.06 13.61 5.04 20.5 15.628 20.5 29.072 0 8.57-3.192 17.982-9.41 25.208-10.755 12.436-27.897 15.965-44.534 15.965-33.442 0-46.718-15.46-54.113-24.03l22.52-14.284zM448.948 3.697h47.727c19.494 0 36.804 0 47.223 14.957 4.538 6.723 6.722 16.302 6.722 24.367 0 6.556-1.344 12.942-4.034 18.488-10.25 21.174-32.098 21.678-48.23 22.015h-19.663v38.82h-29.746V3.697zm29.745 21.847v35.964h17.813c11.092 0 24.536-.337 24.536-18.655 0-17.31-14.957-17.31-23.527-17.31h-18.822zM616.114 125.703c-37.645 0-58.987-28.905-58.987-63.187C557.127 30.418 577.462 0 615.61 0c7.058 0 14.452 1.008 21.678 3.53 36.3 12.604 38.652 52.096 38.652 60.163 0 20.502-9.41 38.988-22.52 49.575-11.594 9.58-25.038 12.435-37.306 12.435zm20.502-92.26c-5.04-5.377-12.772-8.74-20.84-8.74-17.98 0-29.407 15.797-29.407 37.31 0 28.23 15.795 38.65 29.744 38.65 14.116 0 29.24-10.082 30.08-34.954.505-12.437-2.856-25.04-9.578-32.267zM688.186 3.697h53.44c12.435.17 27.897.337 38.82 12.1 5.545 6.217 9.41 15.63 9.41 26.384 0 23.864-16.3 29.746-24.367 32.772l27.392 47.39h-32.77l-23.528-42.35H717.93v42.35h-29.744V3.698zM717.93 25.88v32.1h24.536c4.202-.168 17.814-.505 17.814-16.302 0-15.125-10.924-15.63-17.142-15.797H717.93zM797.686 3.53h91.42v23.528h-30.754v95.285h-29.745V27.058h-30.92V3.53zM914.987 86.716c3.025 3.36 5.547 6.05 11.43 9.243a48.806 48.806 0 0 0 22.854 5.713c11.765 0 21.847-5.546 21.847-13.78 0-9.412-11.932-10.924-20.67-12.1-6.555-.84-13.11-1.68-19.496-3.025-7.225-1.513-31.927-6.723-31.927-32.267 0-30.584 27.225-39.66 47.727-39.66 27.393 0 42.182 13.278 52.433 22.52l-21.846 15.63c-3.698-3.698-7.06-6.892-11.764-9.58-4.204-2.353-11.765-5.21-19.327-5.21-11.764 0-17.646 6.722-17.646 12.436 0 9.075 10.084 10.42 15.125 11.09 12.605 1.513 29.58 4.707 36.3 7.06 13.612 5.04 20.503 15.628 20.503 29.072 0 8.57-3.192 17.982-9.412 25.208-10.755 12.436-27.896 15.965-44.535 15.965-33.44 0-46.717-15.46-54.11-24.03l22.517-14.284z"/></g></g></svg>